<svg xmlns="http://www.w3.org/2000/svg" viewBox="0 0 256 256" aria-hidden="true">
  <rect width="256" height="256" rx="48" fill="#11243c"/>
  <path d="M36 162c16 8 32 12 48 12 17 0 31-4 43-12 10 8 23 12 39 12 20 0 37-6 54-17v26c-17 10-34 15-53 15-16 0-29-4-40-12-13 8-28 12-45 12-18 0-34-4-46-11z" fill="#63b7a7"/>
  <path d="M76 73h104v40h16c7 0 13 6 13 13v30c-13 8-26 12-40 12-13 0-24-4-33-12-11 8-24 12-40 12-11 0-23-2-36-7v-35c0-7 6-13 13-13h3zm24 18v22h56V91zm-6 40v13c8 3 15 4 22 4 10 0 19-3 28-10l11-8 11 8c7 6 14 10 23 10 4 0 8 0 12-1v-16z" fill="#f6f0e3"/>
  <path d="M33 200c18 10 37 15 55 15 17 0 31-4 43-12 11 8 24 12 39 12 22 0 43-7 63-20" fill="none" stroke="#c26c2b" stroke-linecap="round" stroke-linejoin="round" stroke-width="12"/>
</svg>
